<svg width="135" height="39" viewBox="0 0 135 39" fill="none" xmlns="http://www.w3.org/2000/svg">
<path fill-rule="evenodd" clip-rule="evenodd" d="M21.7961 38.6881V21.7175H27.1989V38.6881H21.7961ZM24.503 19.7398C23.7443 19.7398 23.0925 19.4893 22.5474 18.9885C22.0023 18.4802 21.7298 17.8689 21.7298 17.1544C21.7298 16.4473 22.0023 15.8433 22.5474 15.3424C23.0925 14.8342 23.7443 14.5801 24.503 14.5801C25.2691 14.5801 25.9209 14.8342 26.4586 15.3424C27.0037 15.8433 27.2762 16.4473 27.2762 17.1544C27.2762 17.8689 27.0037 18.4802 26.4586 18.9885C25.9209 19.4893 25.2691 19.7398 24.503 19.7398ZM80.9227 38.6881V21.7175H86.3254V38.6881H80.9227ZM83.6296 19.7398C82.8709 19.7398 82.219 19.4893 81.674 18.9885C81.1289 18.4802 80.8564 17.8689 80.8564 17.1544C80.8564 16.4473 81.1289 15.8433 81.674 15.3424C82.219 14.8342 82.8709 14.5801 83.6296 14.5801C84.3956 14.5801 85.0475 14.8342 85.5852 15.3424C86.1302 15.8433 86.4028 16.4473 86.4028 17.1544C86.4028 17.8689 86.1302 18.4802 85.5852 18.9885C85.0475 19.4893 84.3956 19.7398 83.6296 19.7398ZM109.544 21.7175V38.6881H114.947V28.6449C114.947 28.0851 115.046 27.599 115.245 27.1865C115.451 26.774 115.735 26.4573 116.096 26.2363C116.457 26.008 116.873 25.8938 117.344 25.8938C118.044 25.8938 118.608 26.1222 119.035 26.5789C119.462 27.0355 119.676 27.6579 119.676 28.4461V38.6881H124.868V28.5566C124.868 27.7463 125.078 27.1018 125.498 26.623C125.925 26.1369 126.511 25.8938 127.255 25.8938C127.947 25.8938 128.511 26.1185 128.945 26.5678C129.38 27.0097 129.597 27.6542 129.597 28.5013V38.6881H135V27.2639C135 25.474 134.499 24.0671 133.497 23.0433C132.496 22.0121 131.192 21.4965 129.586 21.4965C128.334 21.4965 127.248 21.8022 126.327 22.4135C125.406 23.0175 124.787 23.8241 124.471 24.8332H124.294C124.066 23.8167 123.532 23.0065 122.692 22.4025C121.852 21.7985 120.843 21.4965 119.665 21.4965C118.501 21.4965 117.499 21.7948 116.659 22.3914C115.82 22.9881 115.223 23.802 114.869 24.8332H114.682V21.7175H109.544ZM100.713 21.7175V31.3629C100.713 32.0184 100.585 32.5782 100.327 33.0423C100.076 33.499 99.7338 33.8488 99.2992 34.0919C98.872 34.3276 98.3896 34.4454 97.8519 34.4454C97.0269 34.4454 96.375 34.1803 95.8963 33.65C95.4175 33.1196 95.1744 32.3941 95.1671 31.4734V21.7175H89.7643V32.534C89.7717 33.8157 90.0184 34.9353 90.5046 35.8928C90.9907 36.843 91.672 37.5832 92.5485 38.1136C93.4251 38.6439 94.4415 38.9091 95.598 38.9091C96.8722 38.9091 97.9587 38.6071 98.8573 38.0031C99.7633 37.3917 100.404 36.5668 100.78 35.5282H100.957V38.6881H106.105V21.7175H100.713ZM66.6065 38.6881V29.0095C66.6138 28.3614 66.7317 27.8089 66.96 27.3523C67.1957 26.8956 67.5272 26.5457 67.9544 26.3026C68.389 26.0522 68.8898 25.927 69.457 25.927C70.3114 25.927 70.978 26.1922 71.4568 26.7225C71.9429 27.2528 72.1823 27.9894 72.175 28.9322V38.6881H77.5777V27.8715C77.5851 26.5973 77.342 25.485 76.8485 24.5349C76.3624 23.5773 75.6774 22.8334 74.7935 22.303C73.917 21.7653 72.8821 21.4965 71.6888 21.4965C70.4366 21.4965 69.3576 21.7948 68.4516 22.3914C67.5456 22.9807 66.9048 23.7946 66.5291 24.8332H66.3413V21.7175H61.2037V38.6881H66.6065ZM47.7576 38.9754C46.6748 38.9754 45.7136 38.7949 44.8739 38.434C44.0415 38.0657 43.3823 37.5133 42.8962 36.7767C42.4174 36.0328 42.178 35.101 42.178 33.9814C42.178 33.0386 42.3437 32.2431 42.6752 31.5949C43.0067 30.9467 43.4633 30.4201 44.0452 30.015C44.6271 29.6099 45.2974 29.3042 46.0561 29.0979C46.8147 28.8843 47.625 28.7407 48.4868 28.667C49.4517 28.5786 50.2288 28.4866 50.818 28.3908C51.4073 28.2877 51.8345 28.1441 52.0997 27.9599C52.3722 27.7684 52.5085 27.4996 52.5085 27.1534V27.0981C52.5085 26.531 52.3133 26.0927 51.9229 25.7834C51.5325 25.474 51.0058 25.3193 50.3429 25.3193C49.6285 25.3193 49.0539 25.474 48.6194 25.7834C48.1848 26.0927 47.9086 26.5199 47.7907 27.065L42.8078 26.8882C42.9551 25.857 43.3344 24.9363 43.9458 24.1261C44.5645 23.3085 45.4116 22.6677 46.487 22.2036C47.5697 21.7322 48.8698 21.4965 50.3871 21.4965C51.4699 21.4965 52.4679 21.6254 53.3813 21.8832C54.2946 22.1336 55.0901 22.5019 55.7678 22.9881C56.4454 23.4668 56.9684 24.0561 57.3367 24.7558C57.7123 25.4556 57.9002 26.2548 57.9002 27.1534V38.6881H52.8178V36.3237H52.6852C52.3832 36.8982 51.9965 37.3844 51.5251 37.7821C51.0611 38.1799 50.5123 38.4782 49.8789 38.6771C49.2528 38.8759 48.5457 38.9754 47.7576 38.9754ZM49.4259 35.4398C50.0078 35.4398 50.5308 35.322 50.9948 35.0863C51.4662 34.8506 51.8419 34.5265 52.1217 34.114C52.4016 33.6941 52.5416 33.208 52.5416 32.6556V31.0425C52.3869 31.1235 52.1991 31.1972 51.9781 31.2635C51.7645 31.3297 51.5288 31.3924 51.271 31.4513C51.0132 31.5102 50.748 31.5618 50.4755 31.606C50.203 31.6502 49.9415 31.6907 49.6911 31.7275C49.1828 31.8085 48.7482 31.9337 48.3873 32.1031C48.0338 32.2726 47.7612 32.4935 47.5697 32.7661C47.3856 33.0312 47.2935 33.348 47.2935 33.7162C47.2935 34.276 47.4924 34.7033 47.8901 34.9979C48.2953 35.2925 48.8072 35.4398 49.4259 35.4398ZM40.2169 25.695V21.7175H37.1564V17.6516H31.7537V21.7175H29.5108V25.695H31.7537V33.9483C31.7389 35.0973 31.9673 36.0512 32.4387 36.8099C32.9174 37.5685 33.6061 38.1283 34.5048 38.4892C35.4107 38.8428 36.4972 38.9901 37.7641 38.9312C38.4123 38.9017 38.9684 38.8317 39.4324 38.7213C39.9038 38.6108 40.2684 38.5187 40.5262 38.445L39.7086 34.5449C39.5908 34.5744 39.414 34.6112 39.1783 34.6554C38.95 34.6922 38.7327 34.7106 38.5264 34.7106C38.2392 34.7106 37.9924 34.6701 37.7862 34.5891C37.5799 34.5007 37.4216 34.3571 37.3111 34.1582C37.208 33.9519 37.1564 33.6831 37.1564 33.3516V25.695H40.2169ZM0 16.0606V20.5021H6.87223V38.6881H12.2639V20.5021H19.1251V16.0606H0Z" fill="white"/>
<path d="M133.596 4.25222V6.40301H127.379V4.25222H133.596ZM128.791 1.77881H131.654V11.4036C131.654 11.668 131.694 11.8741 131.775 12.022C131.856 12.1653 131.968 12.2662 132.111 12.3244C132.259 12.3827 132.429 12.4118 132.622 12.4118C132.756 12.4118 132.891 12.4006 133.025 12.3782C133.16 12.3513 133.263 12.3311 133.334 12.3177L133.785 14.4483C133.641 14.4931 133.44 14.5447 133.18 14.6029C132.92 14.6656 132.604 14.7037 132.232 14.7172C131.542 14.7441 130.937 14.6522 130.417 14.4416C129.902 14.231 129.501 13.9039 129.214 13.4603C128.927 13.0167 128.786 12.4566 128.791 11.78V1.77881Z" fill="white"/>
<path d="M119.195 8.60745V14.5759H116.331V4.2521H119.06V6.07355H119.181C119.41 5.47312 119.793 4.99816 120.33 4.64865C120.868 4.29467 121.52 4.11768 122.286 4.11768C123.003 4.11768 123.628 4.2745 124.161 4.58816C124.695 4.90182 125.109 5.3499 125.405 5.93241C125.701 6.51043 125.849 7.20048 125.849 8.00254V14.5759H122.985V8.51336C122.99 7.88156 122.828 7.38867 122.501 7.03469C122.174 6.67622 121.724 6.49699 121.15 6.49699C120.765 6.49699 120.424 6.57988 120.129 6.74567C119.838 6.91147 119.609 7.15343 119.443 7.47157C119.282 7.78523 119.199 8.16385 119.195 8.60745Z" fill="white"/>
<path d="M111.174 14.5759V4.25207H114.038V14.5759H111.174ZM112.613 2.92126C112.187 2.92126 111.822 2.78012 111.517 2.49783C111.217 2.21105 111.067 1.86827 111.067 1.46948C111.067 1.07517 111.217 0.736865 111.517 0.454573C111.822 0.167801 112.187 0.0244141 112.613 0.0244141C113.038 0.0244141 113.401 0.167801 113.702 0.454573C114.006 0.736865 114.159 1.07517 114.159 1.46948C114.159 1.86827 114.006 2.21105 113.702 2.49783C113.401 2.78012 113.038 2.92126 112.613 2.92126Z" fill="white"/>
<path d="M103.43 14.5757V4.25187H106.206V6.05316H106.313C106.501 5.4124 106.817 4.92847 107.261 4.60138C107.705 4.26979 108.215 4.104 108.793 4.104C108.937 4.104 109.091 4.11297 109.257 4.13089C109.423 4.14881 109.569 4.17346 109.694 4.20482V6.74545C109.56 6.70512 109.374 6.66927 109.136 6.63791C108.899 6.60654 108.681 6.59086 108.484 6.59086C108.063 6.59086 107.687 6.68271 107.355 6.86643C107.028 7.04566 106.768 7.29659 106.575 7.61921C106.387 7.94182 106.293 8.31373 106.293 8.73493V14.5757H103.43Z" fill="white"/>
<path d="M91.2292 14.5761V0.811035H96.6599C97.7039 0.811035 98.5934 1.01043 99.3282 1.40922C100.063 1.80354 100.623 2.35244 101.009 3.05592C101.398 3.75493 101.593 4.56148 101.593 5.47557C101.593 6.38965 101.396 7.1962 101.002 7.89521C100.608 8.59422 100.036 9.13864 99.2879 9.52847C98.5441 9.9183 97.6434 10.1132 96.586 10.1132H93.1245V7.78095H96.1155C96.6756 7.78095 97.1371 7.68461 97.5001 7.49194C97.8675 7.29478 98.1408 7.02369 98.3201 6.67867C98.5038 6.32916 98.5956 5.92813 98.5956 5.47557C98.5956 5.01852 98.5038 4.61973 98.3201 4.27919C98.1408 3.93417 97.8675 3.66756 97.5001 3.47936C97.1326 3.28669 96.6666 3.19035 96.102 3.19035H94.1394V14.5761H91.2292Z" fill="white"/>
</svg>
