<svg width="167" height="48" viewBox="0 0 167 48" fill="none" xmlns="http://www.w3.org/2000/svg">
<circle cx="22.5" cy="24.25" r="20.5" stroke="#6927DA" stroke-width="3"/>
<path d="M30.6317 32.3817C26.4923 36.5211 21.8028 39.2233 17.6264 40.2972C13.4123 41.3808 10.0157 40.7571 8.0043 38.7456C5.9929 36.7342 5.36911 33.3376 6.45273 29.1235C7.52666 24.9472 10.2289 20.2576 14.3683 16.1182C18.5077 11.9788 23.1972 9.27662 27.3736 8.2027C31.5876 7.11907 34.9843 7.74286 36.9957 9.75427C39.0071 11.7657 39.6309 15.1623 38.5473 19.3764C37.4733 23.5528 34.7711 28.2423 30.6317 32.3817Z" stroke="#6927DA" stroke-width="3"/>
<path d="M30.6316 16.1182C34.771 20.2576 37.4732 24.9471 38.5471 29.1235C39.6307 33.3376 39.0069 36.7342 36.9955 38.7456C34.9841 40.757 31.5875 41.3808 27.3734 40.2972C23.197 39.2233 18.5075 36.5211 14.3681 32.3817C10.2287 28.2423 7.5265 23.5528 6.45257 19.3764C5.36895 15.1623 5.99274 11.7657 8.00415 9.75426C10.0156 7.74285 13.4122 7.11906 17.6263 8.20269C21.8026 9.27661 26.4922 11.9788 30.6316 16.1182Z" stroke="#6927DA" stroke-width="3"/>
<path d="M63.35 34.2401C68.06 34.2401 71.24 31.7801 71.24 27.8501C71.24 19.5401 60.2 23.0801 60.2 18.7001C60.2 17.4701 61.31 16.6301 63.08 16.6301C65.09 16.6301 66.35 17.7101 66.5 19.3601H70.79C70.67 15.3701 67.61 12.7601 63.08 12.7601C58.82 12.7601 55.82 15.2201 55.82 18.7001C55.82 26.9501 66.71 23.8001 66.71 27.9101C66.71 29.5001 65.36 30.3401 63.35 30.3401C61.13 30.3401 59.72 28.9901 59.54 26.8601H55.22C55.4 31.3301 58.58 34.2401 63.35 34.2401Z" fill="#101828"/>
<path d="M72.2602 40.1201H76.4302V32.6501C77.2402 33.6701 78.7102 34.2401 80.4202 34.2401C84.7702 34.2401 87.7102 31.1501 87.7102 26.4401C87.7102 21.7301 85.0102 18.6401 80.7802 18.6401C78.8302 18.6401 77.3302 19.3601 76.4302 20.5301V18.8801H72.2602V40.1201ZM79.9102 30.6401C77.6602 30.6401 76.1902 28.9601 76.1902 26.4401C76.1902 23.8901 77.6602 22.2101 79.9102 22.2101C82.1002 22.2101 83.6002 23.8901 83.6002 26.4401C83.6002 28.9601 82.1002 30.6401 79.9102 30.6401Z" fill="#101828"/>
<path d="M88.7192 34.0001H92.8892V25.7201C92.8892 23.7701 94.1792 22.3601 96.0092 22.3601C97.7492 22.3601 98.9492 23.6801 98.9492 25.5101V34.0001H103.119V24.5801C103.119 21.1001 100.899 18.6401 97.5092 18.6401C95.4092 18.6401 93.7592 19.5101 92.8892 20.9801V12.3101H88.7192V34.0001Z" fill="#101828"/>
<path d="M114.785 28.8701C114.454 30.1601 113.345 30.8201 111.665 30.8201C109.565 30.8201 108.215 29.5001 107.915 27.3701H118.774C118.804 27.0401 118.835 26.5901 118.835 26.0201C118.835 22.5701 116.705 18.6401 111.365 18.6401C106.235 18.6401 103.895 22.5701 103.895 26.4101C103.895 30.2201 106.535 34.2401 111.665 34.2401C115.385 34.2401 118.264 32.1401 118.865 28.8701H114.785ZM111.365 21.7001C113.375 21.7001 114.545 23.0501 114.665 24.7301H107.975C108.335 22.6301 109.475 21.7001 111.365 21.7001Z" fill="#101828"/>
<path d="M129.771 22.3601V18.8801H127.619C125.789 18.8801 124.649 19.5101 123.839 21.4001V18.8801H119.639V34.0001H123.839V26.6501C123.839 24.0701 124.769 22.3601 126.839 22.3601H129.771Z" fill="#101828"/>
<path d="M144.171 18.8801H139.971V27.1601C139.971 29.0801 138.681 30.5201 136.851 30.5201C135.141 30.5201 133.941 29.2001 133.941 27.3701V18.8801H129.771V28.3001C129.771 31.7501 131.991 34.2401 135.381 34.2401C137.451 34.2401 139.131 33.3401 139.971 31.9001V34.0001H144.171V18.8801Z" fill="#101828"/>
<path d="M145.971 34.0001H150.141V12.3101H145.971V34.0001Z" fill="#101828"/>
<path d="M162.046 28.8701C161.716 30.1601 160.606 30.8201 158.926 30.8201C156.826 30.8201 155.476 29.5001 155.176 27.3701H166.036C166.066 27.0401 166.096 26.5901 166.096 26.0201C166.096 22.5701 163.966 18.6401 158.626 18.6401C153.496 18.6401 151.156 22.5701 151.156 26.4101C151.156 30.2201 153.796 34.2401 158.926 34.2401C162.646 34.2401 165.526 32.1401 166.126 28.8701H162.046ZM158.626 21.7001C160.636 21.7001 161.806 23.0501 161.926 24.7301H155.236C155.596 22.6301 156.736 21.7001 158.626 21.7001Z" fill="#101828"/>
</svg>
