<svg width="198" height="48" viewBox="0 0 198 48" fill="none" xmlns="http://www.w3.org/2000/svg">
<path d="M36.3066 11.1631C35.8743 10.7309 35.4421 10.2986 35.0099 9.86642C33.7132 8.48331 32.3301 7.10021 30.6012 6.23577C28.613 5.19844 26.4519 5.45777 24.2908 5.45777C21.006 5.45777 12.7938 5.45777 7.95291 5.45777L11.2378 9.86642C17.2024 9.86642 26.5384 9.86642 30.8606 9.86642C32.6759 9.86642 34.2319 10.2122 35.7014 11.1631C35.9608 11.2495 36.2201 11.2495 36.3066 11.1631Z" fill="#66C61C"/>
<path d="M39.9372 18.2517C39.505 17.8195 39.0727 17.3873 38.6405 16.955C37.3439 15.5719 35.9608 14.1888 34.2319 13.3244C32.2437 12.2871 30.0826 12.5464 27.9215 12.5464C25.0688 12.5464 18.2397 12.5464 13.3989 12.5464L16.6837 16.955C22.5619 16.955 30.6012 16.955 34.5777 16.955C36.393 16.955 37.949 17.3008 39.4185 18.2517C39.5914 18.3381 39.7643 18.3381 39.9372 18.2517Z" fill="#4CA30D"/>
<path d="M44 25.167C43.5678 24.7348 43.1356 24.3025 42.7034 23.8703C41.4067 22.4872 40.0236 21.1041 38.2947 20.2397C36.3065 19.2023 34.1454 19.4617 31.9843 19.4617C29.3045 19.4617 23.4264 19.4617 18.6719 19.4617L21.9568 23.8703C27.6621 23.8703 34.9234 23.8703 38.5541 23.8703C40.3694 23.8703 41.9254 24.2161 43.3949 25.167C43.6542 25.2534 43.8271 25.3399 44 25.167Z" fill="#3B7C0F"/>
<path d="M7.60715 36.8368C8.03937 37.269 8.47159 37.7012 8.90381 38.1335C10.2005 39.5166 11.5836 40.8997 13.3124 41.7641C15.3007 42.8014 17.4618 42.5421 19.6229 42.5421H35.9608L32.6759 38.1335C26.7113 38.1335 17.3753 38.1335 13.0531 38.1335C11.2378 38.1335 9.6818 37.7877 8.21225 36.8368C7.95292 36.7504 7.78004 36.7504 7.60715 36.8368Z" fill="#66C61C"/>
<path d="M3.97644 29.7487C4.40866 30.1809 4.84088 30.6131 5.2731 31.0453C6.56976 32.4284 7.95286 33.8116 9.68174 34.676C11.67 35.7133 13.8311 35.454 15.9922 35.454H30.5148L27.2299 31.0453C21.3517 31.0453 13.3124 31.0453 9.33597 31.0453C7.52064 31.0453 5.96465 30.6996 4.4951 29.7487C4.32221 29.6622 4.14933 29.6622 3.97644 29.7487Z" fill="#4CA30D"/>
<path d="M0 22.7465C0.43222 23.1787 0.86444 23.6109 1.29666 24.0431C2.59332 25.4262 3.97643 26.8094 5.70531 27.6738C7.69352 28.7111 9.85461 28.4518 12.0157 28.4518H25.3281L22.0432 24.0431C16.3379 24.0431 9.07662 24.0431 5.44598 24.0431C3.63065 24.0431 2.07465 23.6974 0.605106 22.7465C0.345773 22.66 0.172888 22.66 0 22.7465Z" fill="#3B7C0F"/>
<path d="M53.932 14.0081V34.0001H58.328V25.7401H66.7V22.3241H58.328V17.7041H67.988V14.0081H53.932Z" fill="#101828"/>
<path d="M79.0137 25.2081H72.5457C72.5643 24.9281 72.6203 24.6107 72.7137 24.2561C72.8257 23.9014 73.003 23.5654 73.2457 23.2481C73.507 22.9307 73.843 22.6694 74.2537 22.4641C74.683 22.2401 75.215 22.1281 75.8497 22.1281C76.8203 22.1281 77.539 22.3894 78.0057 22.9121C78.491 23.4347 78.827 24.2001 79.0137 25.2081ZM72.5457 27.7281H82.9897C83.0643 26.6081 82.971 25.5347 82.7097 24.5081C82.4483 23.4814 82.019 22.5667 81.4217 21.7641C80.843 20.9614 80.0963 20.3267 79.1817 19.8601C78.267 19.3747 77.1937 19.1321 75.9617 19.1321C74.8603 19.1321 73.8523 19.3281 72.9377 19.7201C72.0417 20.1121 71.267 20.6534 70.6137 21.3441C69.9603 22.0161 69.4563 22.8187 69.1017 23.7521C68.747 24.6854 68.5697 25.6934 68.5697 26.7761C68.5697 27.8961 68.7377 28.9227 69.0737 29.8561C69.4283 30.7894 69.923 31.5921 70.5577 32.2641C71.1923 32.9361 71.967 33.4587 72.8817 33.8321C73.7963 34.1867 74.823 34.3641 75.9617 34.3641C77.6043 34.3641 79.0043 33.9907 80.1617 33.2441C81.319 32.4974 82.1777 31.2561 82.7377 29.5201H79.2377C79.107 29.9681 78.7523 30.3974 78.1737 30.8081C77.595 31.2001 76.9043 31.3961 76.1017 31.3961C74.9817 31.3961 74.123 31.1067 73.5257 30.5281C72.9283 29.9494 72.6017 29.0161 72.5457 27.7281Z" fill="#101828"/>
<path d="M84.3398 23.9761C84.3958 23.0427 84.6291 22.2681 85.0398 21.6521C85.4505 21.0361 85.9731 20.5414 86.6078 20.1681C87.2425 19.7947 87.9518 19.5334 88.7358 19.3841C89.5385 19.2161 90.3411 19.1321 91.1438 19.1321C91.8718 19.1321 92.6091 19.1881 93.3558 19.3001C94.1025 19.3934 94.7838 19.5894 95.3998 19.8881C96.0158 20.1867 96.5198 20.6067 96.9118 21.1481C97.3038 21.6707 97.4998 22.3707 97.4998 23.2481V30.7801C97.4998 31.4334 97.5371 32.0587 97.6118 32.6561C97.6865 33.2534 97.8171 33.7014 98.0038 34.0001H93.9718C93.8971 33.7761 93.8318 33.5521 93.7758 33.3281C93.7385 33.0854 93.7105 32.8427 93.6918 32.6001C93.0571 33.2534 92.3105 33.7107 91.4518 33.9721C90.5931 34.2334 89.7158 34.3641 88.8198 34.3641C88.1291 34.3641 87.4851 34.2801 86.8878 34.1121C86.2905 33.9441 85.7678 33.6827 85.3198 33.3281C84.8718 32.9734 84.5171 32.5254 84.2558 31.9841C84.0131 31.4427 83.8918 30.7987 83.8918 30.0521C83.8918 29.2307 84.0318 28.5587 84.3118 28.0361C84.6105 27.4947 84.9838 27.0654 85.4318 26.7481C85.8985 26.4307 86.4211 26.1974 86.9998 26.0481C87.5971 25.8801 88.1945 25.7494 88.7918 25.6561C89.3891 25.5627 89.9771 25.4881 90.5558 25.4321C91.1345 25.3761 91.6478 25.2921 92.0958 25.1801C92.5438 25.0681 92.8985 24.9094 93.1598 24.7041C93.4211 24.4801 93.5425 24.1627 93.5238 23.7521C93.5238 23.3227 93.4491 22.9867 93.2998 22.7441C93.1691 22.4827 92.9825 22.2867 92.7398 22.1561C92.5158 22.0067 92.2451 21.9134 91.9278 21.8761C91.6291 21.8201 91.3025 21.7921 90.9478 21.7921C90.1638 21.7921 89.5478 21.9601 89.0998 22.2961C88.6518 22.6321 88.3905 23.1921 88.3158 23.9761H84.3398ZM93.5238 26.9161C93.3558 27.0654 93.1411 27.1867 92.8798 27.2801C92.6371 27.3547 92.3665 27.4201 92.0678 27.4761C91.7878 27.5321 91.4891 27.5787 91.1718 27.6161C90.8545 27.6534 90.5371 27.7001 90.2198 27.7561C89.9211 27.8121 89.6225 27.8867 89.3238 27.9801C89.0438 28.0734 88.7918 28.2041 88.5678 28.3721C88.3625 28.5214 88.1945 28.7174 88.0638 28.9601C87.9331 29.2027 87.8678 29.5107 87.8678 29.8841C87.8678 30.2387 87.9331 30.5374 88.0638 30.7801C88.1945 31.0227 88.3718 31.2187 88.5958 31.3681C88.8198 31.4987 89.0811 31.5921 89.3798 31.6481C89.6785 31.7041 89.9865 31.7321 90.3038 31.7321C91.0878 31.7321 91.6945 31.6014 92.1238 31.3401C92.5531 31.0787 92.8705 30.7707 93.0758 30.4161C93.2811 30.0427 93.4025 29.6694 93.4398 29.2961C93.4958 28.9227 93.5238 28.6241 93.5238 28.4001V26.9161Z" fill="#101828"/>
<path d="M104.786 19.5241V15.1841H100.81V19.5241H98.4019V22.1841H100.81V30.7241C100.81 31.4521 100.931 32.0401 101.174 32.4881C101.417 32.9361 101.743 33.2814 102.154 33.5241C102.583 33.7667 103.069 33.9254 103.61 34.0001C104.17 34.0934 104.758 34.1401 105.374 34.1401C105.766 34.1401 106.167 34.1307 106.578 34.1121C106.989 34.0934 107.362 34.0561 107.698 34.0001V30.9201C107.511 30.9574 107.315 30.9854 107.11 31.0041C106.905 31.0227 106.69 31.0321 106.466 31.0321C105.794 31.0321 105.346 30.9201 105.122 30.6961C104.898 30.4721 104.786 30.0241 104.786 29.3521V22.1841H107.698V19.5241H104.786Z" fill="#101828"/>
<path d="M108.75 14.0081V34.0001H112.726V26.4121C112.726 24.9374 112.968 23.8827 113.454 23.2481C113.939 22.5947 114.723 22.2681 115.806 22.2681C116.758 22.2681 117.42 22.5667 117.794 23.1641C118.167 23.7427 118.354 24.6294 118.354 25.8241V34.0001H122.33V25.0961C122.33 24.2001 122.246 23.3881 122.078 22.6601C121.928 21.9134 121.658 21.2881 121.266 20.7841C120.874 20.2614 120.332 19.8601 119.642 19.5801C118.97 19.2814 118.102 19.1321 117.038 19.1321C116.291 19.1321 115.526 19.3281 114.742 19.7201C113.958 20.0934 113.314 20.7001 112.81 21.5401H112.726V14.0081H108.75Z" fill="#101828"/>
<path d="M134.251 25.2081H127.783C127.802 24.9281 127.858 24.6107 127.951 24.2561C128.063 23.9014 128.241 23.5654 128.483 23.2481C128.745 22.9307 129.081 22.6694 129.491 22.4641C129.921 22.2401 130.453 22.1281 131.087 22.1281C132.058 22.1281 132.777 22.3894 133.243 22.9121C133.729 23.4347 134.065 24.2001 134.251 25.2081ZM127.783 27.7281H138.227C138.302 26.6081 138.209 25.5347 137.947 24.5081C137.686 23.4814 137.257 22.5667 136.659 21.7641C136.081 20.9614 135.334 20.3267 134.419 19.8601C133.505 19.3747 132.431 19.1321 131.199 19.1321C130.098 19.1321 129.09 19.3281 128.175 19.7201C127.279 20.1121 126.505 20.6534 125.851 21.3441C125.198 22.0161 124.694 22.8187 124.339 23.7521C123.985 24.6854 123.807 25.6934 123.807 26.7761C123.807 27.8961 123.975 28.9227 124.311 29.8561C124.666 30.7894 125.161 31.5921 125.795 32.2641C126.43 32.9361 127.205 33.4587 128.119 33.8321C129.034 34.1867 130.061 34.3641 131.199 34.3641C132.842 34.3641 134.242 33.9907 135.399 33.2441C136.557 32.4974 137.415 31.2561 137.975 29.5201H134.475C134.345 29.9681 133.99 30.3974 133.411 30.8081C132.833 31.2001 132.142 31.3961 131.339 31.3961C130.219 31.3961 129.361 31.1067 128.763 30.5281C128.166 29.9494 127.839 29.0161 127.783 27.7281Z" fill="#101828"/>
<path d="M139.745 19.5241V34.0001H143.721V27.4761C143.721 26.8227 143.787 26.2161 143.917 25.6561C144.048 25.0961 144.263 24.6107 144.561 24.2001C144.879 23.7707 145.289 23.4347 145.793 23.1921C146.297 22.9494 146.913 22.8281 147.641 22.8281C147.884 22.8281 148.136 22.8467 148.397 22.8841C148.659 22.9027 148.883 22.9307 149.069 22.9681V19.2721C148.752 19.1787 148.463 19.1321 148.201 19.1321C147.697 19.1321 147.212 19.2067 146.745 19.3561C146.279 19.5054 145.84 19.7201 145.429 20.0001C145.019 20.2614 144.655 20.5881 144.337 20.9801C144.02 21.3534 143.768 21.7641 143.581 22.2121H143.525V19.5241H139.745Z" fill="#101828"/>
<path d="M154.604 30.3041V17.7041H157.74C158.823 17.7041 159.728 17.8627 160.456 18.1801C161.203 18.4787 161.8 18.9174 162.248 19.4961C162.696 20.0747 163.014 20.7747 163.2 21.5961C163.406 22.3987 163.508 23.3041 163.508 24.3121C163.508 25.4134 163.368 26.3467 163.088 27.1121C162.808 27.8774 162.435 28.5027 161.968 28.9881C161.502 29.4547 160.97 29.7907 160.372 29.9961C159.775 30.2014 159.159 30.3041 158.524 30.3041H154.604ZM150.208 14.0081V34.0001H158.832C160.363 34.0001 161.688 33.7481 162.808 33.2441C163.947 32.7214 164.89 32.0121 165.636 31.1161C166.402 30.2201 166.971 29.1561 167.344 27.9241C167.718 26.6921 167.904 25.3481 167.904 23.8921C167.904 22.2307 167.671 20.7841 167.204 19.5521C166.756 18.3201 166.122 17.2934 165.3 16.4721C164.498 15.6507 163.536 15.0347 162.416 14.6241C161.315 14.2134 160.12 14.0081 158.832 14.0081H150.208Z" fill="#101828"/>
<path d="M179.446 25.2081H172.978C172.997 24.9281 173.053 24.6107 173.146 24.2561C173.258 23.9014 173.435 23.5654 173.678 23.2481C173.939 22.9307 174.275 22.6694 174.686 22.4641C175.116 22.2401 175.647 22.1281 176.282 22.1281C177.253 22.1281 177.971 22.3894 178.438 22.9121C178.924 23.4347 179.259 24.2001 179.446 25.2081ZM172.978 27.7281H183.422C183.497 26.6081 183.403 25.5347 183.142 24.5081C182.881 23.4814 182.451 22.5667 181.854 21.7641C181.275 20.9614 180.529 20.3267 179.614 19.8601C178.7 19.3747 177.626 19.1321 176.394 19.1321C175.293 19.1321 174.285 19.3281 173.37 19.7201C172.474 20.1121 171.7 20.6534 171.046 21.3441C170.393 22.0161 169.889 22.8187 169.534 23.7521C169.179 24.6854 169.002 25.6934 169.002 26.7761C169.002 27.8961 169.17 28.9227 169.506 29.8561C169.861 30.7894 170.355 31.5921 170.99 32.2641C171.625 32.9361 172.399 33.4587 173.314 33.8321C174.229 34.1867 175.256 34.3641 176.394 34.3641C178.037 34.3641 179.437 33.9907 180.594 33.2441C181.752 32.4974 182.61 31.2561 183.17 29.5201H179.67C179.539 29.9681 179.185 30.3974 178.606 30.8081C178.027 31.2001 177.337 31.3961 176.534 31.3961C175.414 31.3961 174.555 31.1067 173.958 30.5281C173.361 29.9494 173.034 29.0161 172.978 27.7281Z" fill="#101828"/>
<path d="M192.948 34.0001L197.848 19.5241H193.9L190.848 29.4081H190.792L187.74 19.5241H183.568L188.524 34.0001H192.948Z" fill="#101828"/>
</svg>
